<mxfile host="65bd71144e">
    <diagram id="pgNvOaAiY3ooeMpxftMF" name="Page-1">
        <mxGraphModel dx="685" dy="450" grid="1" gridSize="10" guides="1" tooltips="1" connect="1" arrows="1" fold="1" page="1" pageScale="1" pageWidth="1169" pageHeight="827" math="0" shadow="0">
            <root>
                <mxCell id="0"/>
                <mxCell id="1" parent="0"/>
                <mxCell id="36" value="" style="rounded=0;whiteSpace=wrap;html=1;" parent="1" vertex="1">
                    <mxGeometry x="80" y="260" width="640" height="250" as="geometry"/>
                </mxCell>
                <mxCell id="38" value="Servidor Remoto" style="text;html=1;align=center;verticalAlign=middle;whiteSpace=wrap;rounded=0;fontFamily=Stretch Pro;" parent="1" vertex="1">
                    <mxGeometry x="80" y="230" width="160" height="30" as="geometry"/>
                </mxCell>
                <mxCell id="40" value="API" style="swimlane;whiteSpace=wrap;html=1;fillColor=#647687;strokeColor=#314354;fontColor=#ffffff;" vertex="1" parent="1">
                    <mxGeometry x="295" y="290" width="150" height="191" as="geometry"/>
                </mxCell>
                <mxCell id="41" value="REST" style="rounded=1;whiteSpace=wrap;html=1;" vertex="1" parent="40">
                    <mxGeometry x="15" y="41" width="120" height="60" as="geometry"/>
                </mxCell>
                <mxCell id="42" value="MQTT" style="rounded=1;whiteSpace=wrap;html=1;" vertex="1" parent="40">
                    <mxGeometry x="15" y="110.5" width="120" height="60" as="geometry"/>
                </mxCell>
                <mxCell id="43" value="Utils" style="swimlane;whiteSpace=wrap;html=1;fillColor=#bac8d3;strokeColor=#23445d;" vertex="1" parent="1">
                    <mxGeometry x="485" y="290" width="150" height="115.5" as="geometry"/>
                </mxCell>
                <mxCell id="44" value="QRCode&lt;div&gt;Generator&lt;/div&gt;" style="rounded=1;whiteSpace=wrap;html=1;" vertex="1" parent="43">
                    <mxGeometry x="15" y="41" width="120" height="60" as="geometry"/>
                </mxCell>
                <mxCell id="46" value="" style="group" vertex="1" connectable="0" parent="1">
                    <mxGeometry x="150" y="310" width="80" height="122.5" as="geometry"/>
                </mxCell>
                <mxCell id="7" value="PostgreSQL" style="shape=datastore;whiteSpace=wrap;html=1;" parent="46" vertex="1">
                    <mxGeometry y="37.5" width="80" height="85" as="geometry"/>
                </mxCell>
                <mxCell id="37" value="&lt;b&gt;&lt;font style=&quot;color: rgb(0, 0, 0);&quot;&gt;BANCO DE DADOS&lt;/font&gt;&lt;/b&gt;" style="text;html=1;align=center;verticalAlign=middle;whiteSpace=wrap;rounded=0;" parent="46" vertex="1">
                    <mxGeometry x="4.5" width="71" height="30" as="geometry"/>
                </mxCell>
                <mxCell id="47" style="edgeStyle=none;html=1;exitX=0;exitY=0.75;exitDx=0;exitDy=0;entryX=1;entryY=0.75;entryDx=0;entryDy=0;" edge="1" parent="1" source="44" target="41">
                    <mxGeometry relative="1" as="geometry"/>
                </mxCell>
                <mxCell id="50" value="Servidor Local" style="ellipse;whiteSpace=wrap;html=1;fontFamily=Stretch Pro;fontSize=9;" vertex="1" parent="1">
                    <mxGeometry x="330" y="530" width="80" height="60" as="geometry"/>
                </mxCell>
                <mxCell id="52" value="Servidor Local" style="ellipse;whiteSpace=wrap;html=1;fontFamily=Stretch Pro;fontSize=9;" vertex="1" parent="1">
                    <mxGeometry x="230" y="530" width="80" height="60" as="geometry"/>
                </mxCell>
                <mxCell id="54" value="Servidor Local" style="ellipse;whiteSpace=wrap;html=1;fontFamily=Stretch Pro;fontSize=9;" vertex="1" parent="1">
                    <mxGeometry x="430" y="530" width="80" height="60" as="geometry"/>
                </mxCell>
                <mxCell id="55" style="edgeStyle=orthogonalEdgeStyle;html=1;entryX=0.5;entryY=0;entryDx=0;entryDy=0;" edge="1" parent="1" source="42" target="52">
                    <mxGeometry relative="1" as="geometry"/>
                </mxCell>
                <mxCell id="56" style="edgeStyle=orthogonalEdgeStyle;html=1;" edge="1" parent="1" source="42" target="50">
                    <mxGeometry relative="1" as="geometry"/>
                </mxCell>
                <mxCell id="57" style="edgeStyle=orthogonalEdgeStyle;html=1;entryX=0.5;entryY=0;entryDx=0;entryDy=0;" edge="1" parent="1" source="42" target="54">
                    <mxGeometry relative="1" as="geometry"/>
                </mxCell>
                <mxCell id="58" style="edgeStyle=orthogonalEdgeStyle;html=1;entryX=1;entryY=0.5;entryDx=0;entryDy=0;rounded=1;" edge="1" parent="1" source="41" target="7">
                    <mxGeometry relative="1" as="geometry"/>
                </mxCell>
                <mxCell id="48" style="edgeStyle=none;html=1;entryX=0.5;entryY=1;entryDx=0;entryDy=0;" edge="1" parent="1" source="41" target="60">
                    <mxGeometry relative="1" as="geometry">
                        <mxPoint x="480" y="240" as="targetPoint"/>
                        <Array as="points">
                            <mxPoint x="465" y="360"/>
                        </Array>
                    </mxGeometry>
                </mxCell>
                <mxCell id="60" value="&lt;font face=&quot;Helvetica&quot;&gt;Interface de UsuÃ¡rio&lt;/font&gt;" style="ellipse;whiteSpace=wrap;html=1;fontFamily=Stretch Pro;fontSize=9;" vertex="1" parent="1">
                    <mxGeometry x="420" y="180" width="90" height="60" as="geometry"/>
                </mxCell>
            </root>
        </mxGraphModel>
    </diagram>
</mxfile>